<svg width="21" height="21" viewBox="0 0 21 21" fill="none" xmlns="http://www.w3.org/2000/svg">
<path d="M5.51465 10.5L8.51465 13.5L14.5146 7.5M5.81465 19.5H14.2146C15.8948 19.5 16.7349 19.5 17.3766 19.173C17.9411 18.8854 18.4 18.4265 18.6877 17.862C19.0146 17.2202 19.0146 16.3802 19.0146 14.7V6.3C19.0146 4.61984 19.0146 3.77976 18.6877 3.13803C18.4 2.57354 17.9411 2.1146 17.3766 1.82698C16.7349 1.5 15.8948 1.5 14.2146 1.5H5.81465C4.13449 1.5 3.29441 1.5 2.65268 1.82698C2.08819 2.1146 1.62925 2.57354 1.34163 3.13803C1.01465 3.77976 1.01465 4.61984 1.01465 6.3V14.7C1.01465 16.3802 1.01465 17.2202 1.34163 17.862C1.62925 18.4265 2.08819 18.8854 2.65268 19.173C3.29441 19.5 4.13449 19.5 5.81465 19.5Z" stroke="#0E6131" stroke-width="2" stroke-linecap="round" stroke-linejoin="round"/>
</svg>
