<svg width="21" height="21" viewBox="0 0 21 21" fill="none" xmlns="http://www.w3.org/2000/svg">
<path d="M15.0628 1.32471H6.66279C4.98264 1.32471 4.14256 1.32471 3.50082 1.65169C2.93634 1.93931 2.47739 2.39825 2.18977 2.96274C1.86279 3.60447 1.86279 4.44455 1.86279 6.12471V14.5247C1.86279 16.2049 1.86279 17.0449 2.18977 17.6867C2.47739 18.2512 2.93634 18.7101 3.50082 18.9977C4.14256 19.3247 4.98264 19.3247 6.66279 19.3247H15.0628C16.743 19.3247 17.583 19.3247 18.2248 18.9977C18.7892 18.7101 19.2482 18.2512 19.5358 17.6867C19.8628 17.0449 19.8628 16.2049 19.8628 14.5247V6.12471C19.8628 4.44455 19.8628 3.60447 19.5358 2.96274C19.2482 2.39825 18.7892 1.93931 18.2248 1.65169C17.583 1.32471 16.743 1.32471 15.0628 1.32471Z" stroke="#D9D9D9" stroke-width="2" stroke-linecap="round" stroke-linejoin="round"/>
</svg>
