<svg width="128" height="74" viewBox="0 0 128 74" fill="none" xmlns="http://www.w3.org/2000/svg">
<path d="M126.444 38.2735C127.208 37.5095 127.208 36.2708 126.444 35.5068L113.994 23.0565C113.23 22.2925 111.991 22.2925 111.227 23.0565C110.463 23.8206 110.463 25.0593 111.227 25.8233L122.294 36.8901L111.227 47.957C110.463 48.721 110.463 49.9597 111.227 50.7237C111.991 51.4877 113.23 51.4877 113.994 50.7237L126.444 38.2735ZM61.5129 38.8465L125.061 38.8465L125.061 34.9338L61.5129 34.9338L61.5129 38.8465Z" fill="#EBEBEB"/>
<path fill-rule="evenodd" clip-rule="evenodd" d="M30.946 0.964286C31.9052 1.44689 32.6877 2.21972 33.1823 3.1728C33.6005 3.9797 33.9431 5.49924 33.9431 6.55014C33.9431 7.77364 33.456 8.9468 32.5894 9.81048L32.0763 10.3218C30.9838 11.4106 29.5043 12.022 27.9619 12.022H27.7188C26.324 12.022 24.9779 11.5095 23.9362 10.582L23.8948 10.5451C22.8798 9.64104 22.2302 8.39716 22.0684 7.04758L21.9876 6.37238C21.8771 5.44875 22.0543 4.51351 22.495 3.69433C23.394 2.02346 25.4342 0.578799 27.3755 0.2374C28.3989 0.0575513 29.4531 0.212789 30.3812 0.680032L30.946 0.964286ZM27.9761 17.254C28.5955 17.5027 29.4819 18.2473 29.9463 18.9081C30.4958 19.6898 30.7907 20.622 30.7907 21.5775V31.3573C30.7907 36.3987 32.6728 41.2585 36.0683 44.9848L38.5951 47.7576C40.4129 49.7525 41.8404 52.0707 42.8035 54.5919L44.7375 59.6545C48.8824 70.5044 48.9744 71.5045 45.968 73.0539L45.6324 73.2268C44.8768 73.6162 44.0053 73.7172 43.1807 73.511C41.1343 72.9994 40.5038 71.9129 37.312 63.4041L35.7906 59.3473C34.8021 56.7116 33.3075 54.2948 31.391 52.2329L28.0896 48.681C24.6771 45.0099 21.6428 41.3708 21.3465 40.5942C20.9905 39.6606 20.808 38.6698 20.808 37.6706V33.4563C20.808 30.3072 20.663 27.7305 20.4859 27.7305C20.3088 27.7305 16.6841 29.7333 12.4315 32.1813C8.17831 34.6292 4.23042 36.632 3.65773 36.632C3.08557 36.632 2.09938 36.1513 1.46732 35.5644C0.740305 34.8895 0.317215 33.933 0.317215 32.941V32.7584C0.317215 31.8872 0.69894 31.0597 1.36172 30.4942C1.93598 30.0041 7.42541 26.7079 13.5606 23.1687L23.7887 17.2685C24.3938 16.9194 25.0842 16.7459 25.7825 16.7675C26.3694 16.7858 27.3566 17.0047 27.9761 17.254ZM35.9428 24.7448C37.4247 26.2512 39.276 27.3423 41.3118 27.9089L43.3872 28.4866C46.2375 29.2799 49.0616 30.2721 49.6626 30.6921C50.3473 31.1698 50.7537 31.9534 50.7497 32.7882L50.7481 33.1274C50.7387 35.1015 50.3767 35.7372 48.7863 36.5718C48.0266 36.9705 47.145 37.0698 46.3157 36.8501L41.2803 35.5157C37.8022 34.5941 34.6004 33.5809 34.1664 33.2646C33.6722 32.9045 33.3875 32.3237 33.4056 31.7125L33.5848 25.6697C33.6207 24.4577 35.0924 23.8804 35.9428 24.7448ZM26.0367 49.9619C26.7687 50.7848 27.0653 51.907 26.8354 52.9841C26.6342 53.9261 23.9835 58.7455 20.9446 63.6937L16.2185 71.3886C15.6988 72.2347 14.9245 72.8945 14.0066 73.2733L13.8802 73.3254C13.0545 73.6663 12.1299 73.6799 11.2945 73.3633C9.51021 72.6873 8.54872 71.4055 8.54872 69.7022C8.54872 68.7655 8.80859 67.8472 9.29942 67.0494L16.7194 54.9894C17.8623 53.132 18.717 51.112 19.2545 48.9984L19.5076 48.0029C19.9604 46.2221 22.2198 45.6715 23.4412 47.0444L26.0367 49.9619Z" fill="white"/>
</svg>
