<svg width="276" height="232" viewBox="0 0 276 232" fill="none" xmlns="http://www.w3.org/2000/svg">
<rect x="2.27881" y="2.60547" width="271.442" height="12.666" rx="2" fill="#434449" stroke="#0E6131" stroke-width="4"/>
<path d="M269.309 4.60352H8.64789V228.768H13.7818C14.6993 228.768 15.443 229.85 15.443 231.186L15.443 231.188H20.5099V231.186C20.5099 229.85 21.2536 228.768 22.171 228.768H30.1483C31.0657 228.768 31.8094 229.85 31.8094 231.186V231.188H36.8763V231.186C36.8763 229.85 37.62 228.768 38.5375 228.768H46.5147C47.4322 228.768 48.1759 229.85 48.1759 231.186V231.188H53.2428V231.186C53.2428 229.85 53.9865 228.768 54.9039 228.768H62.8812C63.7986 228.768 64.5423 229.85 64.5423 231.186V231.188H69.6092V231.186C69.6092 229.85 70.3529 228.768 71.2704 228.768H79.2476C80.165 228.768 80.9088 229.85 80.9088 231.186V231.188H85.9756V231.186C85.9756 229.85 86.7194 228.768 87.6368 228.768H95.614C96.5315 228.768 97.2752 229.85 97.2752 231.186V231.188H102.342V231.186C102.342 229.85 103.086 228.768 104.003 228.768H111.98C112.898 228.768 113.642 229.85 113.642 231.186V231.188H118.709V231.186C118.709 229.85 119.452 228.768 120.37 228.768H128.347C129.264 228.768 130.008 229.85 130.008 231.186V231.188H135.075V231.186C135.075 229.85 135.819 228.768 136.736 228.768H144.713C145.631 228.768 146.375 229.85 146.375 231.186V231.188H151.441V231.186C151.441 229.85 152.185 228.768 153.103 228.768H161.08C161.997 228.768 162.741 229.85 162.741 231.186V231.188H167.808V231.186C167.808 229.85 168.552 228.768 169.469 228.768H177.446C178.364 228.768 179.107 229.85 179.107 231.186V231.188H182.662V231.186C182.662 229.85 183.406 228.768 184.324 228.768H192.301C193.218 228.768 193.962 229.85 193.962 231.186V231.188H199.029V231.186C199.029 229.85 199.773 228.768 200.69 228.768H208.667C209.585 228.768 210.328 229.85 210.328 231.186V231.188H215.395V231.186C215.395 229.85 216.139 228.768 217.056 228.768H225.034C225.951 228.768 226.695 229.85 226.695 231.186V231.188H231.762V231.186C231.762 229.85 232.505 228.768 233.423 228.768H241.4C242.318 228.768 243.061 229.85 243.061 231.186V231.188H248.128V231.186C248.128 229.85 248.872 228.768 249.789 228.768H257.767C258.684 228.768 259.428 229.85 259.428 231.186V231.188H264.495V231.186C264.495 229.85 265.238 228.768 266.156 228.768H269.309V4.60352Z" fill="#0E6131"/>
<path d="M269.309 4.60352H8.64789V228.768H13.7818C14.6993 228.768 15.443 229.85 15.443 231.186L15.443 231.188H20.5099V231.186C20.5099 229.85 21.2536 228.768 22.171 228.768H30.1483C31.0657 228.768 31.8094 229.85 31.8094 231.186V231.188H36.8763V231.186C36.8763 229.85 37.62 228.768 38.5375 228.768H46.5147C47.4322 228.768 48.1759 229.85 48.1759 231.186V231.188H53.2428V231.186C53.2428 229.85 53.9865 228.768 54.9039 228.768H62.8812C63.7986 228.768 64.5423 229.85 64.5423 231.186V231.188H69.6092V231.186C69.6092 229.85 70.3529 228.768 71.2704 228.768H79.2476C80.165 228.768 80.9088 229.85 80.9088 231.186V231.188H85.9756V231.186C85.9756 229.85 86.7194 228.768 87.6368 228.768H95.614C96.5315 228.768 97.2752 229.85 97.2752 231.186V231.188H102.342V231.186C102.342 229.85 103.086 228.768 104.003 228.768H111.98C112.898 228.768 113.642 229.85 113.642 231.186V231.188H118.709V231.186C118.709 229.85 119.452 228.768 120.37 228.768H128.347C129.264 228.768 130.008 229.85 130.008 231.186V231.188H135.075V231.186C135.075 229.85 135.819 228.768 136.736 228.768H144.713C145.631 228.768 146.375 229.85 146.375 231.186V231.188H151.441V231.186C151.441 229.85 152.185 228.768 153.103 228.768H161.08C161.997 228.768 162.741 229.85 162.741 231.186V231.188H167.808V231.186C167.808 229.85 168.552 228.768 169.469 228.768H177.446C178.364 228.768 179.107 229.85 179.107 231.186V231.188H182.662V231.186C182.662 229.85 183.406 228.768 184.324 228.768H192.301C193.218 228.768 193.962 229.85 193.962 231.186V231.188H199.029V231.186C199.029 229.85 199.773 228.768 200.69 228.768H208.667C209.585 228.768 210.328 229.85 210.328 231.186V231.188H215.395V231.186C215.395 229.85 216.139 228.768 217.056 228.768H225.034C225.951 228.768 226.695 229.85 226.695 231.186V231.188H231.762V231.186C231.762 229.85 232.505 228.768 233.423 228.768H241.4C242.318 228.768 243.061 229.85 243.061 231.186V231.188H248.128V231.186C248.128 229.85 248.872 228.768 249.789 228.768H257.767C258.684 228.768 259.428 229.85 259.428 231.186V231.188H264.495V231.186C264.495 229.85 265.238 228.768 266.156 228.768H269.309V4.60352Z" fill="url(#paint0_linear_6_2663)" fill-opacity="0.12"/>
<defs>
<linearGradient id="paint0_linear_6_2663" x1="138.979" y1="231.188" x2="138.979" y2="-12.9922" gradientUnits="userSpaceOnUse">
<stop offset="0.874177" stop-color="white" stop-opacity="0"/>
<stop offset="0.929234" stop-color="white"/>
<stop offset="0.934718" stop-color="white" stop-opacity="0"/>
</linearGradient>
</defs>
</svg>
