<svg width="25" height="25" viewBox="0 0 25 25" fill="none" xmlns="http://www.w3.org/2000/svg">
<path d="M20.3805 11.671C20.3427 11.4238 20.2163 11.1983 20.0245 11.0359C19.8327 10.8736 19.5884 10.7853 19.3363 10.7872H10.8723L9.33515 8.9825C9.00937 8.60306 8.5312 8.36398 8.02815 8.36398H2.52882C2.13696 8.36398 1.76453 8.54599 1.51106 8.84368C1.38602 8.99389 1.29499 9.169 1.24415 9.35715C1.19331 9.54531 1.18384 9.74211 1.21639 9.93421L1.36256 10.7872H1.26615C1.11481 10.7853 0.964863 10.8161 0.826782 10.8776C0.688702 10.9391 0.565811 11.0297 0.466683 11.1432C0.367556 11.2566 0.29458 11.3902 0.252849 11.5345C0.211117 11.6788 0.201635 11.8304 0.225063 11.9787L1.93247 22.9673C1.98258 23.287 2.14634 23.5785 2.39417 23.789C2.64199 23.9994 2.95754 24.115 3.28379 24.1149H21.0087C21.1598 24.1145 21.3091 24.082 21.4465 24.0195C21.5838 23.957 21.7061 23.8659 21.8049 23.7525C21.9037 23.6391 21.9769 23.506 22.0194 23.3622C22.0619 23.2183 22.0728 23.0671 22.0513 22.9187L20.3805 11.671ZM16.1664 3.4705H9.54585C9.08945 3.4705 8.71936 3.87926 8.71936 4.33274C8.71936 4.78623 9.09023 5.19498 9.54585 5.19498H16.1664C16.6243 5.19498 16.9936 4.78623 16.9936 4.33274C16.9936 3.87926 16.6227 3.4705 16.1664 3.4705ZM23.9663 9.51311C23.8724 9.40283 23.7557 9.31382 23.6241 9.25209C23.4925 9.19036 23.3491 9.15734 23.2036 9.15526H21.3251L21.7528 13.0847L22.7736 19.9494L24.2027 10.3152C24.2227 10.1725 24.212 10.0273 24.1713 9.88899C24.1306 9.75072 24.0607 9.62261 23.9663 9.51311Z" fill="#0E6131"/>
<path d="M7.13091 1.69975H18.6878V9.48226H20.2864V1.12287C20.2833 0.855405 20.1744 0.599843 19.9832 0.411283C19.7919 0.222723 19.5336 0.116267 19.264 0.114868H6.48324C5.87212 0.114868 5.39317 0.613856 5.39317 1.22005V7.24492H7.13091V1.69975Z" fill="#0E6131"/>
<path d="M16.1664 6.6395H9.54585C9.14855 6.6395 8.81733 6.95108 8.73724 7.33284C9.30956 7.47481 9.82331 7.78957 10.2075 8.23364L10.328 8.3632H16.1664C16.6243 8.3632 16.9936 7.95445 16.9936 7.50097C16.9936 7.04748 16.6227 6.6395 16.1664 6.6395Z" fill="#0E6131"/>
</svg>
