<svg width="25" height="25" viewBox="0 0 25 25" fill="none" xmlns="http://www.w3.org/2000/svg">
<path d="M14.9885 0.0484619H3.48846C1.96846 0.0484619 0.738464 1.27846 0.738464 2.79846V18.2985C0.738464 19.8185 1.96846 21.0485 3.48846 21.0485H10.8685L11.0885 19.8185C11.1885 19.2585 11.4485 18.7585 11.8485 18.3485L17.7385 12.4685V2.79846C17.7385 1.27846 16.5085 0.0484619 14.9885 0.0484619ZM4.73846 4.04846H8.73846C9.28846 4.04846 9.73846 4.49846 9.73846 5.04846C9.73846 5.59846 9.28846 6.04846 8.73846 6.04846H4.73846C4.18846 6.04846 3.73846 5.59846 3.73846 5.04846C3.73846 4.49846 4.18846 4.04846 4.73846 4.04846ZM9.73846 14.0485H4.73846C4.18846 14.0485 3.73846 13.5985 3.73846 13.0485C3.73846 12.4985 4.18846 12.0485 4.73846 12.0485H9.73846C10.2885 12.0485 10.7385 12.4985 10.7385 13.0485C10.7385 13.5985 10.2885 14.0485 9.73846 14.0485ZM13.7385 10.0485H4.73846C4.18846 10.0485 3.73846 9.59846 3.73846 9.04846C3.73846 8.49846 4.18846 8.04846 4.73846 8.04846H13.7385C14.2885 8.04846 14.7385 8.49846 14.7385 9.04846C14.7385 9.59846 14.2885 10.0485 13.7385 10.0485ZM13.2665 24.0485C13.1568 24.0487 13.0484 24.0249 12.949 23.9787C12.8496 23.9324 12.7616 23.8649 12.6911 23.7808C12.6207 23.6967 12.5697 23.5982 12.5415 23.4922C12.5134 23.3862 12.509 23.2754 12.5285 23.1675L13.0585 20.1625C13.0853 20.011 13.1579 19.8714 13.2665 19.7625L20.6915 12.3385C21.6035 11.4245 22.4995 11.6715 22.9895 12.1615L24.2265 13.3985C24.389 13.561 24.5179 13.7539 24.6059 13.9662C24.6938 14.1786 24.7391 14.4061 24.7391 14.636C24.7391 14.8658 24.6938 15.0934 24.6059 15.3057C24.5179 15.518 24.389 15.711 24.2265 15.8735L16.8015 23.2985C16.6931 23.4078 16.5532 23.4805 16.4015 23.5065L13.3965 24.0365C13.3536 24.0444 13.3101 24.0484 13.2665 24.0485Z" fill="#0E6131"/>
</svg>
