<svg width="25" height="25" viewBox="0 0 25 25" fill="none" xmlns="http://www.w3.org/2000/svg">
<path d="M13.5315 2.2346L2.37633 0.564604C1.85866 0.484604 1.33084 0.624604 0.934983 0.954604C0.539121 1.2946 0.305664 1.7846 0.305664 2.2946V23.3646C0.305664 23.9146 0.762428 24.3646 1.32069 24.3646H4.61954V19.1146C4.61954 18.1446 5.41126 17.3646 6.39584 17.3646H8.93342C9.918 17.3646 10.7097 18.1446 10.7097 19.1146V24.3646H15.0236V3.9646C15.0236 3.1046 14.3943 2.3746 13.5315 2.2346ZM5.88833 15.1146H4.36578C4.16388 15.1146 3.97025 15.0356 3.82748 14.8949C3.68472 14.7543 3.60451 14.5635 3.60451 14.3646C3.60451 14.1657 3.68472 13.9749 3.82748 13.8343C3.97025 13.6936 4.16388 13.6146 4.36578 13.6146H5.88833C6.09023 13.6146 6.28386 13.6936 6.42663 13.8343C6.5694 13.9749 6.6496 14.1657 6.6496 14.3646C6.6496 14.5635 6.5694 14.7543 6.42663 14.8949C6.28386 15.0356 6.09023 15.1146 5.88833 15.1146ZM5.88833 12.1146H4.36578C4.16388 12.1146 3.97025 12.0356 3.82748 11.8949C3.68472 11.7543 3.60451 11.5635 3.60451 11.3646C3.60451 11.1657 3.68472 10.9749 3.82748 10.8343C3.97025 10.6936 4.16388 10.6146 4.36578 10.6146H5.88833C6.09023 10.6146 6.28386 10.6936 6.42663 10.8343C6.5694 10.9749 6.6496 11.1657 6.6496 11.3646C6.6496 11.5635 6.5694 11.7543 6.42663 11.8949C6.28386 12.0356 6.09023 12.1146 5.88833 12.1146ZM5.88833 9.1146H4.36578C4.16388 9.1146 3.97025 9.03559 3.82748 8.89493C3.68472 8.75428 3.60451 8.56352 3.60451 8.3646C3.60451 8.16569 3.68472 7.97493 3.82748 7.83427C3.97025 7.69362 4.16388 7.6146 4.36578 7.6146H5.88833C6.09023 7.6146 6.28386 7.69362 6.42663 7.83427C6.5694 7.97493 6.6496 8.16569 6.6496 8.3646C6.6496 8.56352 6.5694 8.75428 6.42663 8.89493C6.28386 9.03559 6.09023 9.1146 5.88833 9.1146ZM5.88833 6.1146H4.36578C4.16388 6.1146 3.97025 6.03559 3.82748 5.89493C3.68472 5.75428 3.60451 5.56352 3.60451 5.3646C3.60451 5.16569 3.68472 4.97493 3.82748 4.83427C3.97025 4.69362 4.16388 4.6146 4.36578 4.6146H5.88833C6.09023 4.6146 6.28386 4.69362 6.42663 4.83427C6.5694 4.97493 6.6496 5.16569 6.6496 5.3646C6.6496 5.56352 6.5694 5.75428 6.42663 5.89493C6.28386 6.03559 6.09023 6.1146 5.88833 6.1146ZM10.9635 15.1146H9.44093C9.23903 15.1146 9.0454 15.0356 8.90263 14.8949C8.75987 14.7543 8.67966 14.5635 8.67966 14.3646C8.67966 14.1657 8.75987 13.9749 8.90263 13.8343C9.0454 13.6936 9.23903 13.6146 9.44093 13.6146H10.9635C11.1654 13.6146 11.359 13.6936 11.5018 13.8343C11.6445 13.9749 11.7248 14.1657 11.7248 14.3646C11.7248 14.5635 11.6445 14.7543 11.5018 14.8949C11.359 15.0356 11.1654 15.1146 10.9635 15.1146ZM10.9635 12.1146H9.44093C9.23903 12.1146 9.0454 12.0356 8.90263 11.8949C8.75987 11.7543 8.67966 11.5635 8.67966 11.3646C8.67966 11.1657 8.75987 10.9749 8.90263 10.8343C9.0454 10.6936 9.23903 10.6146 9.44093 10.6146H10.9635C11.1654 10.6146 11.359 10.6936 11.5018 10.8343C11.6445 10.9749 11.7248 11.1657 11.7248 11.3646C11.7248 11.5635 11.6445 11.7543 11.5018 11.8949C11.359 12.0356 11.1654 12.1146 10.9635 12.1146ZM10.9635 9.1146H9.44093C9.23903 9.1146 9.0454 9.03559 8.90263 8.89493C8.75987 8.75428 8.67966 8.56352 8.67966 8.3646C8.67966 8.16569 8.75987 7.97493 8.90263 7.83427C9.0454 7.69362 9.23903 7.6146 9.44093 7.6146H10.9635C11.1654 7.6146 11.359 7.69362 11.5018 7.83427C11.6445 7.97493 11.7248 8.16569 11.7248 8.3646C11.7248 8.56352 11.6445 8.75428 11.5018 8.89493C11.359 9.03559 11.1654 9.1146 10.9635 9.1146ZM10.9635 6.1146H9.44093C9.23903 6.1146 9.0454 6.03559 8.90263 5.89493C8.75987 5.75428 8.67966 5.56352 8.67966 5.3646C8.67966 5.16569 8.75987 4.97493 8.90263 4.83427C9.0454 4.69362 9.23903 4.6146 9.44093 4.6146H10.9635C11.1654 4.6146 11.359 4.69362 11.5018 4.83427C11.6445 4.97493 11.7248 5.16569 11.7248 5.3646C11.7248 5.56352 11.6445 5.75428 11.5018 5.89493C11.359 6.03559 11.1654 6.1146 10.9635 6.1146ZM23.2656 11.2066L16.0386 9.7156V24.3646H22.8901C23.8696 24.3646 24.6664 23.5796 24.6664 22.6146V12.9166C24.6664 12.0906 24.0949 11.3876 23.2656 11.2066ZM20.86 21.3646H19.3375C19.1356 21.3646 18.9419 21.2856 18.7992 21.1449C18.6564 21.0043 18.5762 20.8135 18.5762 20.6146C18.5762 20.4157 18.6564 20.2249 18.7992 20.0843C18.9419 19.9436 19.1356 19.8646 19.3375 19.8646H20.86C21.0619 19.8646 21.2556 19.9436 21.3983 20.0843C21.5411 20.2249 21.6213 20.4157 21.6213 20.6146C21.6213 20.8135 21.5411 21.0043 21.3983 21.1449C21.2556 21.2856 21.0619 21.3646 20.86 21.3646ZM20.86 18.3646H19.3375C19.1356 18.3646 18.9419 18.2856 18.7992 18.1449C18.6564 18.0043 18.5762 17.8135 18.5762 17.6146C18.5762 17.4157 18.6564 17.2249 18.7992 17.0843C18.9419 16.9436 19.1356 16.8646 19.3375 16.8646H20.86C21.0619 16.8646 21.2556 16.9436 21.3983 17.0843C21.5411 17.2249 21.6213 17.4157 21.6213 17.6146C21.6213 17.8135 21.5411 18.0043 21.3983 18.1449C21.2556 18.2856 21.0619 18.3646 20.86 18.3646ZM20.86 15.3646H19.3375C19.1356 15.3646 18.9419 15.2856 18.7992 15.1449C18.6564 15.0043 18.5762 14.8135 18.5762 14.6146C18.5762 14.4157 18.6564 14.2249 18.7992 14.0843C18.9419 13.9436 19.1356 13.8646 19.3375 13.8646H20.86C21.0619 13.8646 21.2556 13.9436 21.3983 14.0843C21.5411 14.2249 21.6213 14.4157 21.6213 14.6146C21.6213 14.8135 21.5411 15.0043 21.3983 15.1449C21.2556 15.2856 21.0619 15.3646 20.86 15.3646Z" fill="#0E6131"/>
</svg>
