<svg width="25" height="25" viewBox="0 0 25 25" fill="none" xmlns="http://www.w3.org/2000/svg">
<path d="M12.2129 12.1561C15.3688 12.1561 17.9272 9.59774 17.9272 6.44182C17.9272 3.28591 15.3688 0.727539 12.2129 0.727539C9.05697 0.727539 6.4986 3.28591 6.4986 6.44182C6.4986 9.59774 9.05697 12.1561 12.2129 12.1561Z" fill="#0E6131"/>
<path d="M13.4243 13.299H11.0015C9.58018 13.3035 8.1737 13.5879 6.86233 14.1359C5.55096 14.684 4.36038 15.485 3.35857 16.4931C2.35675 17.5013 1.56333 18.6969 1.02359 20.0118C0.483853 21.3266 0.208374 22.7348 0.212884 24.1561C0.212884 24.3077 0.273088 24.453 0.380252 24.5602C0.487415 24.6673 0.63276 24.7275 0.784313 24.7275H23.6415C23.8001 24.7131 23.9473 24.639 24.0533 24.5202C24.1594 24.4014 24.2164 24.2468 24.2129 24.0875C24.2068 21.2281 23.0683 18.4875 21.0463 16.4655C19.0244 14.4436 16.2838 13.305 13.4243 13.299Z" fill="#0E6131"/>
</svg>
