<svg width="25" height="25" viewBox="0 0 25 25" fill="none" xmlns="http://www.w3.org/2000/svg">
<path d="M10.7131 0.380493C4.92339 0.380493 0.213659 4.21578 0.213659 8.93001C0.213659 11.3179 1.41359 13.5572 3.53147 15.1682C2.83101 16.2616 1.92506 17.3685 0.782127 17.6505C0.420648 17.7405 0.179161 18.0825 0.216659 18.453C0.254157 18.8249 0.55864 19.1114 0.932119 19.1279C0.948618 19.1279 1.01311 19.1309 1.12111 19.1309C1.89656 19.1309 4.89039 19.0064 8.2877 17.244C9.06616 17.4015 9.88061 17.4795 10.7131 17.4795C16.5012 17.4795 21.2125 13.6442 21.2125 8.93001C21.2125 4.21578 16.5012 0.380493 10.7131 0.380493Z" fill="#0E6131"/>
<path d="M23.6423 22.8447C22.6869 22.6092 21.9639 21.9103 21.4585 21.2173C23.2179 19.8389 24.2123 17.943 24.2123 15.9226C24.2123 14.2307 23.5013 12.6753 22.3209 11.4319C20.9875 15.7651 16.2973 18.9794 10.7131 18.9794C9.96761 18.9794 9.23115 18.9224 8.51569 18.8099C8.10502 19.0081 7.68727 19.1912 7.26326 19.3589C8.77668 21.6838 11.7705 23.2722 15.2128 23.2722C15.9163 23.2722 16.5987 23.2077 17.2467 23.0817C19.3991 24.1781 21.3625 24.3806 22.5174 24.3791C23.1504 24.3791 23.5403 24.3191 23.5838 24.3116C23.9348 24.2546 24.1973 23.9577 24.2123 23.6022C24.2258 23.2467 23.9888 22.9287 23.6423 22.8447Z" fill="#0E6131"/>
</svg>
