<svg width="112" height="25" viewBox="0 0 112 25" fill="none" xmlns="http://www.w3.org/2000/svg">
<path d="M0.270752 4.82835C0.318589 4.56043 0.352758 4.28841 0.418363 4.02459C0.762787 2.64263 1.67579 1.76506 2.94414 1.21145C3.76284 0.853315 4.62937 0.678348 5.51503 0.6018C7.73876 0.409063 9.87774 0.741227 11.9197 1.6557C12.0495 1.71311 12.1056 1.77599 12.1042 1.92635C12.0974 3.21537 12.1001 4.50438 12.1001 5.7934C12.1001 5.84671 12.0946 5.90002 12.0919 5.95606C12.0017 5.9588 11.9457 5.90139 11.8801 5.86995C10.0459 4.97734 8.11872 4.48115 6.06994 4.49755C5.80752 4.50028 5.5492 4.53856 5.31138 4.66021C4.98199 4.82835 4.94509 5.12497 5.22118 5.36965C5.42619 5.55008 5.67767 5.64577 5.92916 5.73599C6.83806 6.06405 7.77429 6.30736 8.69549 6.60125C9.60029 6.88968 10.4723 7.24918 11.2582 7.79595C12.2395 8.47941 12.8942 9.38022 13.0281 10.5886C13.2236 12.3588 12.6222 13.7927 11.1447 14.8261C10.2659 15.4412 9.27773 15.7843 8.22669 15.9223C6.0713 16.2067 3.95555 16.0413 1.90404 15.2799C1.32999 15.0666 0.784656 14.796 0.272119 14.4597V10.0158C1.11678 10.6733 2.07078 11.1121 3.08219 11.4416C4.37515 11.8612 5.68724 12.1619 7.05947 12.0758C7.40253 12.0539 7.74559 12.0157 8.04765 11.8284C8.38934 11.6179 8.40437 11.2652 8.09001 11.0205C7.9424 10.9057 7.77566 10.8251 7.60481 10.754C6.88726 10.4587 6.14511 10.2373 5.40432 10.0145C4.33824 9.69462 3.2872 9.33921 2.33867 8.7405C1.40927 8.15272 0.701283 7.38997 0.42383 6.29369C0.356858 6.02988 0.322689 5.75786 0.273485 5.48994V4.83108" fill="black"/>
<path d="M61.9487 8.30354C61.9487 5.89638 61.95 3.48922 61.9446 1.08206C61.9446 0.902988 61.9801 0.838742 62.1783 0.840109C64.2448 0.848311 66.3114 0.836008 68.3779 0.849678C69.9292 0.860613 71.4245 1.14904 72.7912 1.91725C74.65 2.96295 75.9526 4.46384 76.3817 6.59215C76.8273 8.80247 76.5539 10.9034 75.1257 12.7324C73.9202 14.277 72.3047 15.1792 70.3926 15.5674C69.6846 15.7109 68.967 15.7724 68.244 15.7724C66.2185 15.7724 64.1929 15.7697 62.1674 15.7779C61.9774 15.7779 61.9446 15.7205 61.9459 15.5469C61.9514 13.1329 61.95 10.7189 61.95 8.30491M66.526 8.30764V11.3108C66.526 11.833 66.526 11.8357 67.0467 11.8316C67.7807 11.8275 68.516 11.8712 69.2404 11.7031C70.3297 11.4516 71.1648 10.887 71.583 9.81126C71.7976 9.26039 71.8632 8.68081 71.8331 8.0944C71.7388 6.23811 70.7534 5.1514 68.9192 4.85751C68.1948 4.74132 67.4663 4.8042 66.7406 4.78097C66.5711 4.7755 66.5205 4.82061 66.5219 4.99421C66.5301 6.09869 66.526 7.2018 66.526 8.30628" fill="black"/>
<path d="M37.3593 16.05C35.2381 16.0418 33.4408 15.5196 31.9264 14.2087C29.9378 12.4877 29.0713 10.3061 29.223 7.68709C29.4225 4.23969 32.1697 1.25022 35.5743 0.691143C37.8814 0.312503 40.0696 0.617329 41.9981 2.03894C43.6533 3.2596 44.7371 4.86711 45.0774 6.92024C45.8797 11.766 42.5366 15.3556 38.7685 15.9283C38.2518 16.0062 37.7324 16.0431 37.3593 16.05ZM33.8905 8.30767C33.8877 8.66581 33.9219 9.02121 34.0176 9.36704C34.3497 10.5672 35.0577 11.4448 36.2891 11.7728C37.522 12.1009 38.6509 11.8576 39.5612 10.913C40.6546 9.77849 40.8418 7.70896 40.0108 6.31196C38.7876 4.25473 35.9939 4.27523 34.7187 5.86907C34.142 6.58808 33.8973 7.40413 33.8905 8.30904" fill="black"/>
<path d="M13.2808 0.845165H13.5651C15.089 0.845165 16.6143 0.847899 18.1383 0.841064C18.2941 0.841064 18.3597 0.88754 18.4116 1.03654C19.3916 3.84968 20.3784 6.66008 21.3652 9.47049C21.3925 9.54704 21.4226 9.62222 21.4677 9.73977C21.6632 9.19027 21.8449 8.68314 22.024 8.17601C22.8632 5.80028 23.7024 3.42456 24.5361 1.0461C24.5908 0.888907 24.6605 0.841064 24.8259 0.841064C26.3156 0.847899 27.8054 0.845165 29.2966 0.845165H29.5002C29.5193 0.929915 29.4756 0.988693 29.451 1.0502C27.5102 5.99029 25.568 10.929 23.6299 15.8705C23.5766 16.0058 23.5124 16.0564 23.3634 16.055C22.0445 16.0482 20.7269 16.0495 19.408 16.055C19.2672 16.055 19.1921 16.0222 19.136 15.8787C17.202 10.929 15.2626 5.98072 13.3245 1.0338C13.3027 0.977757 13.2671 0.924447 13.2822 0.846532" fill="black"/>
<path d="M44.6497 0.844804H44.8547C46.4401 0.844804 48.0269 0.846171 49.6124 0.84207C49.7532 0.84207 49.8338 0.885812 49.9076 1.0061C50.6908 2.27871 51.4794 3.54722 52.268 4.8171C52.3104 4.88681 52.3555 4.95516 52.4006 5.02624C52.4867 4.98113 52.5127 4.89912 52.5537 4.8335C53.356 3.56499 54.1569 2.29512 54.9523 1.02114C55.0357 0.887179 55.1232 0.840703 55.2804 0.84207C56.8111 0.848905 58.3419 0.846171 59.8741 0.846171H60.0791C60.0668 0.960993 59.9984 1.02387 59.952 1.09632C58.2326 3.70715 56.5132 6.31799 54.7897 8.92609C54.6954 9.06962 54.6503 9.20904 54.6503 9.38264C54.6557 11.5219 54.6503 13.6611 54.6585 15.8017C54.6585 15.9835 54.6134 16.0287 54.433 16.0273C53.0594 16.0191 51.6871 16.0177 50.3135 16.0273C50.1058 16.0287 50.0689 15.9617 50.0702 15.773C50.0771 13.6748 50.073 11.5766 50.0771 9.47833C50.0771 9.31977 50.0374 9.18991 49.9513 9.05731C48.2306 6.39864 46.5139 3.73723 44.7959 1.07582C44.7549 1.01294 44.7166 0.950058 44.6497 0.846171" fill="black"/>
<path d="M93.7848 8.32413C93.7848 10.7176 93.782 13.1097 93.7902 15.5032C93.7902 15.7165 93.7287 15.763 93.5237 15.763C88.7387 15.7575 83.9536 15.7589 79.1686 15.7589C78.9836 15.7589 78.8911 15.6645 78.8911 15.4759C78.8911 10.7108 78.8911 5.94431 78.8911 1.17919C78.8911 0.976885 78.9932 0.875732 79.1973 0.875732C83.9618 0.875732 88.7264 0.875732 93.4909 0.875732C93.6868 0.875732 93.7848 0.972784 93.7848 1.16689C93.7848 3.55355 93.7848 5.93884 93.7848 8.3255M86.3427 11.1427C87.2147 11.1427 88.0867 11.1386 88.9587 11.1468C89.1241 11.1482 89.1651 11.0963 89.1651 10.9377C89.1596 9.18256 89.1596 7.42742 89.1651 5.67229C89.1651 5.52056 89.1227 5.47135 88.9683 5.47135C87.2106 5.47545 85.453 5.47545 83.6953 5.47135C83.5327 5.47135 83.4821 5.52192 83.4834 5.68322C83.4875 7.43152 83.4889 9.17983 83.4834 10.9281C83.4834 11.1017 83.5408 11.1482 83.7076 11.1468C84.5864 11.14 85.4653 11.1441 86.3441 11.1441" fill="#0E6131"/>
<path d="M107.28 7.46134C107.085 7.78941 106.889 8.11884 106.694 8.4469C106.236 9.21922 105.773 9.9888 105.323 10.7652C105.238 10.9115 105.143 10.9538 104.981 10.9525C104.302 10.9443 103.622 10.9443 102.942 10.9525C102.793 10.9538 102.709 10.9074 102.632 10.7802C101.988 9.72771 101.339 8.67928 100.688 7.63084C100.652 7.5707 100.632 7.49278 100.526 7.44494V15.4715C100.526 15.6511 100.438 15.7408 100.263 15.7408C98.9527 15.7408 97.6406 15.7381 96.3299 15.7449C96.1522 15.7449 96.0989 15.7039 96.0989 15.518C96.1043 10.6969 96.1043 5.87707 96.0989 1.05591C96.0989 0.859075 96.1617 0.820801 96.3422 0.822168C97.7089 0.829002 99.0743 0.827635 100.441 0.822168C100.59 0.822168 100.673 0.868643 100.751 0.995768C101.753 2.63335 102.759 4.26683 103.766 5.90031C103.809 5.96866 103.837 6.04931 103.911 6.09988C103.986 6.05477 104.014 5.97276 104.055 5.90578C105.062 4.2805 106.071 2.65522 107.071 1.02584C107.167 0.868643 107.271 0.820801 107.448 0.820801C108.795 0.827635 110.14 0.827635 111.486 0.820801C111.664 0.820801 111.729 0.85224 111.729 1.05181C111.722 5.87297 111.724 10.6928 111.729 15.5139C111.729 15.693 111.688 15.7449 111.504 15.7436C110.193 15.7354 108.881 15.7354 107.57 15.7436C107.386 15.7436 107.328 15.7012 107.328 15.5057C107.335 12.9072 107.332 10.3073 107.332 7.70876V7.46681C107.316 7.46408 107.3 7.45998 107.283 7.45724" fill="black"/>
<path d="M0.270752 20.4157C0.270752 20.052 0.335828 19.7266 0.464946 19.4394C0.594064 19.1522 0.766566 18.925 0.981419 18.7566C1.19627 18.5882 1.43385 18.4611 1.69312 18.3764C1.95239 18.2906 2.22509 18.2483 2.51225 18.2483C2.96984 18.2483 3.37785 18.3444 3.73629 18.5375V19.5469C3.42744 19.3485 3.07417 19.2493 2.67752 19.2493C2.33045 19.2493 2.03812 19.3402 1.80055 19.5221C1.56297 19.7039 1.44521 19.9828 1.44521 20.3578C1.44521 20.7328 1.564 20.9901 1.80055 21.1812C2.03709 21.3713 2.32425 21.4663 2.66099 21.4663C3.08553 21.4663 3.45739 21.3702 3.7776 21.177V22.1946C3.36443 22.3713 2.91716 22.4591 2.43787 22.4591C1.84186 22.4591 1.33262 22.2845 0.90808 21.9343C0.483539 21.5841 0.270752 21.0779 0.270752 20.4167L0.270752 20.4157Z" fill="black"/>
<path d="M6.4157 21.0531L7.4001 18.3733H8.59109L6.82991 22.8238C6.43843 23.7886 5.86721 24.2711 5.11832 24.2711C4.95822 24.2711 4.75163 24.2411 4.49752 24.1802V23.2287C4.67932 23.2669 4.83633 23.2866 4.96855 23.2866C5.38792 23.2866 5.70194 22.9973 5.91163 22.4178L5.91989 22.4012L4.04199 18.3733H5.25777L6.4157 21.0531Z" fill="black"/>
<path d="M10.311 22.3434H9.16138V18.3733H13.0649V22.3434H11.9152V19.3413H10.311V22.3434Z" fill="black"/>
<path d="M13.8181 20.3576C13.8181 19.9991 13.8811 19.681 14.0082 19.402C14.1352 19.1231 14.3015 18.9041 14.5081 18.744C14.7147 18.5838 14.9327 18.463 15.162 18.3803C15.3903 18.2977 15.6237 18.2563 15.8613 18.2563C16.2579 18.2563 16.6019 18.3307 16.8911 18.4795C17.1804 18.6283 17.3942 18.8204 17.5326 19.0549C17.67 19.2894 17.765 19.5539 17.8177 19.8493C17.8704 20.1448 17.8549 20.4382 17.7722 20.7306H14.9771C15.038 21.0064 15.1971 21.212 15.4564 21.3473C15.7156 21.4826 16.0214 21.5498 16.3747 21.5498C16.8106 21.5498 17.2103 21.4702 17.5739 21.3101V22.212C17.1824 22.3773 16.6969 22.4599 16.1185 22.4599C15.4564 22.4599 14.9079 22.275 14.473 21.9062C14.0371 21.5363 13.8191 21.0208 13.8191 20.3597L13.8181 20.3576ZM16.7372 19.9857C16.7651 19.8039 16.7124 19.6159 16.5802 19.4237C16.448 19.2305 16.2218 19.1345 15.9016 19.1345C15.6475 19.1345 15.4305 19.2099 15.2477 19.3617C15.0659 19.5136 14.9719 19.7212 14.9668 19.9867H16.7362L16.7372 19.9857Z" fill="black"/>
<path d="M19.5663 18.9516C19.8917 18.4888 20.3709 18.2563 21.0052 18.2563C21.6063 18.2563 22.0794 18.4619 22.4234 18.8731C22.7684 19.2843 22.9399 19.7791 22.9399 20.3576C22.9399 20.9361 22.7674 21.432 22.4234 21.8421C22.0784 22.2533 21.6063 22.4578 21.0052 22.4578C20.4598 22.4578 20.0239 22.2791 19.6985 21.9206V24.1624H18.5488V18.3721H19.5663V18.9506V18.9516ZM21.4855 21.1644C21.6725 20.9465 21.7665 20.6779 21.7665 20.3576C21.7665 20.0374 21.6725 19.7688 21.4855 19.5508C21.2975 19.3328 21.0444 19.2243 20.7242 19.2243C20.4866 19.2243 20.2759 19.2874 20.091 19.4144C19.9061 19.5415 19.7729 19.6985 19.6902 19.8855V20.8287C19.7729 21.0167 19.9061 21.1737 20.091 21.2998C20.2759 21.4268 20.4866 21.4899 20.7242 21.4899C21.0434 21.4899 21.2975 21.3814 21.4855 21.1634V21.1644Z" fill="black"/>
<path d="M24.8095 22.3434H23.6929V18.3733H24.793L26.0253 20.3423L27.2658 18.3733H28.3577V22.3434H27.2493V20.0024L26.3145 21.4828H25.7443L24.8095 20.0024V22.3434Z" fill="black"/>
<path d="M32.8819 21.3173C32.8819 21.4939 32.9759 21.5817 33.1628 21.5817C33.2403 21.5817 33.3116 21.5704 33.3777 21.5487V22.3018C33.168 22.3793 32.9563 22.4175 32.7404 22.4175C32.321 22.4175 32.0287 22.2687 31.8634 21.9712C31.4502 22.2966 30.973 22.4588 30.4328 22.4588C30.0413 22.4588 29.7118 22.3503 29.4442 22.1324C29.1767 21.9144 29.0435 21.6179 29.0435 21.2429C29.0435 20.9288 29.1375 20.6664 29.3244 20.4567C29.5114 20.247 29.7293 20.1055 29.9783 20.0311C30.2262 19.9567 30.4968 19.9195 30.7891 19.9195C31.1145 19.9195 31.4285 19.9557 31.7322 20.027V19.8865C31.7322 19.683 31.6527 19.5197 31.4926 19.3989C31.3325 19.278 31.1011 19.217 30.7974 19.217C30.3563 19.217 29.8874 19.3162 29.3916 19.5146V18.5218C29.9204 18.3451 30.4338 18.2573 30.9296 18.2573C32.2311 18.2573 32.8819 18.8555 32.8819 20.0528V21.3183V21.3173ZM31.0546 20.6055C30.817 20.6055 30.6187 20.6499 30.4586 20.7377C30.2985 20.8255 30.219 20.964 30.219 21.151C30.219 21.2946 30.2778 21.4113 30.3966 21.5022C30.5154 21.5931 30.6621 21.6386 30.8387 21.6386C31.1858 21.6386 31.4843 21.5311 31.7322 21.3162V20.6964C31.4781 20.6355 31.2529 20.6055 31.0536 20.6055H31.0546Z" fill="black"/>
<path d="M35.0079 18.9516C35.3333 18.4888 35.8126 18.2563 36.4468 18.2563C37.048 18.2563 37.5211 18.4619 37.8651 18.8731C38.2101 19.2843 38.3815 19.7791 38.3815 20.3576C38.3815 20.9361 38.209 21.432 37.8651 21.8421C37.5201 22.2533 37.048 22.4578 36.4468 22.4578C35.9014 22.4578 35.4655 22.2791 35.1401 21.9206V24.1624H33.9905V18.3721H35.0079V18.9506V18.9516ZM36.9271 21.1644C37.1141 20.9465 37.2081 20.6779 37.2081 20.3576C37.2081 20.0374 37.1141 19.7688 36.9271 19.5508C36.7391 19.3328 36.4861 19.2243 36.1659 19.2243C35.9283 19.2243 35.7176 19.2874 35.5327 19.4144C35.3478 19.5415 35.2145 19.6985 35.1319 19.8855V20.8287C35.2145 21.0167 35.3478 21.1737 35.5327 21.2998C35.7176 21.4268 35.9283 21.4899 36.1659 21.4899C36.485 21.4899 36.7391 21.3814 36.9271 21.1634V21.1644Z" fill="black"/>
<path d="M40.2839 22.3434H39.1343V18.3733H40.2839V19.8537H40.7632L41.7724 18.3733H43.0626L41.6981 20.3341L43.1783 22.3444H41.8881L40.7467 20.7731H40.2839V22.3444V22.3434Z" fill="black"/>
<path d="M43.2363 20.3576C43.2363 19.9991 43.2993 19.681 43.4264 19.402C43.5534 19.1231 43.7197 18.9041 43.9263 18.744C44.1329 18.5838 44.3509 18.463 44.5802 18.3803C44.8085 18.2977 45.0419 18.2563 45.2795 18.2563C45.6761 18.2563 46.0201 18.3307 46.3093 18.4795C46.5986 18.6283 46.8124 18.8204 46.9508 19.0549C47.0882 19.2894 47.1832 19.5539 47.2359 19.8493C47.2886 20.1448 47.2731 20.4382 47.1904 20.7306H44.3953C44.4562 21.0064 44.6153 21.212 44.8746 21.3473C45.1338 21.4826 45.4396 21.5498 45.7929 21.5498C46.2288 21.5498 46.6285 21.4702 46.9921 21.3101V22.212C46.6006 22.3773 46.1151 22.4599 45.5367 22.4599C44.8746 22.4599 44.3261 22.275 43.8912 21.9062C43.4553 21.5363 43.2374 21.0208 43.2374 20.3597L43.2363 20.3576ZM46.1554 19.9857C46.1833 19.8039 46.1306 19.6159 45.9984 19.4237C45.8662 19.2305 45.64 19.1345 45.3198 19.1345C45.0657 19.1345 44.8488 19.2099 44.6659 19.3617C44.4841 19.5136 44.3901 19.7212 44.385 19.9867H46.1544L46.1554 19.9857Z" fill="black"/>
<path d="M49.9685 22.3434H48.8271V19.3413H47.5618V18.3733H51.2339V19.3413H49.9685V22.3434Z" fill="black"/>
<path d="M54.8403 22.3434H53.6907V18.3733H54.8403V19.8785H56.4445V18.3733H57.5942V22.3434H56.4445V20.8382H54.8403V22.3434Z" fill="black"/>
<path d="M58.3474 20.3576C58.3474 19.9991 58.4104 19.681 58.5375 19.402C58.6645 19.1231 58.8308 18.9041 59.0374 18.744C59.244 18.5838 59.462 18.463 59.6913 18.3803C59.9196 18.2977 60.153 18.2563 60.3906 18.2563C60.7872 18.2563 61.1312 18.3307 61.4204 18.4795C61.7097 18.6283 61.9235 18.8204 62.0619 19.0549C62.1993 19.2894 62.2943 19.5539 62.347 19.8493C62.3997 20.1448 62.3842 20.4382 62.3015 20.7306H59.5064C59.5673 21.0064 59.7264 21.212 59.9857 21.3473C60.2449 21.4826 60.5507 21.5498 60.904 21.5498C61.3399 21.5498 61.7396 21.4702 62.1032 21.3101V22.212C61.7117 22.3773 61.2262 22.4599 60.6478 22.4599C59.9857 22.4599 59.4372 22.275 59.0023 21.9062C58.5664 21.5363 58.3484 21.0208 58.3484 20.3597L58.3474 20.3576ZM61.2665 19.9857C61.2944 19.8039 61.2417 19.6159 61.1095 19.4237C60.9773 19.2305 60.7511 19.1345 60.4309 19.1345C60.1768 19.1345 59.9598 19.2099 59.777 19.3617C59.5952 19.5136 59.5012 19.7212 59.496 19.9867H61.2655L61.2665 19.9857Z" fill="black"/>
<path d="M63.7721 23.3941H62.7134V21.4664H63.267C63.6802 20.7494 63.8734 19.7184 63.8455 18.3723H67.1127V21.4664H67.7087V23.3941H66.6499V22.3434H63.7721V23.3941ZM64.9053 19.2494C64.8722 20.1544 64.7235 20.893 64.4591 21.4664H65.9723V19.2494H64.9053Z" fill="black"/>
<path d="M70.8522 22.3434H68.4207V18.3733H70.7861C71.2272 18.3733 71.5556 18.4745 71.7705 18.6749C71.9854 18.8764 72.0928 19.1254 72.0928 19.4239C72.0928 19.8764 71.8883 20.1791 71.4802 20.3341C71.9492 20.489 72.1837 20.8 72.1837 21.269C72.1837 21.583 72.0794 21.8413 71.8697 22.0428C71.66 22.2442 71.3212 22.3444 70.8522 22.3444V22.3434ZM69.5621 19.1584V20.0024H70.439C70.7696 20.0024 70.9348 19.865 70.9348 19.5892C70.9348 19.3134 70.7665 19.1595 70.4308 19.1595H69.5621V19.1584ZM69.5703 20.6967V21.5572H70.5134C70.8667 21.5572 71.0423 21.4167 71.0423 21.1357C71.0423 20.8547 70.8656 20.6977 70.5134 20.6977H69.5703V20.6967Z" fill="black"/>
<path d="M73.9626 22.3434H72.9617V18.3733H74.1113V20.6068L75.8808 18.3733H76.8734V22.3434H75.732V20.1099L73.9616 22.3434H73.9626Z" fill="black"/>
<path d="M83.8537 22.3434H82.6214L81.637 20.863H81.1908V22.3434H80.0411V20.863H79.5949L78.6105 22.3434H77.3782L78.751 20.3496L77.4939 18.3723H78.7179L79.6692 19.9519H80.0411V18.3723H81.1908V19.9519H81.5626L82.514 18.3723H83.738L82.4809 20.3496L83.8537 22.3434Z" fill="black"/>
<path d="M85.3588 22.3434H84.3579V18.3733H85.5076V20.6068L87.277 18.3733H88.2697V22.3434H87.1283V20.1099L85.3578 22.3434H85.3588Z" fill="black"/>
<path d="M90.3622 22.3434H89.2456V18.3733H90.3457L91.578 20.3423L92.8186 18.3733H93.9104V22.3434H92.802V20.0024L91.8672 21.4828H91.297L90.3622 20.0024V22.3434Z" fill="black"/>
<path d="M95.2997 21.9052C94.8751 21.5353 94.6624 21.0198 94.6624 20.3587C94.6624 19.6975 94.8741 19.181 95.2997 18.8121C95.7242 18.4423 96.2428 18.2584 96.8543 18.2584C97.4658 18.2584 97.9915 18.4433 98.413 18.8121C98.8344 19.182 99.0462 19.6975 99.0462 20.3587C99.0462 21.0198 98.8355 21.5364 98.413 21.9052C97.9915 22.275 97.4709 22.4589 96.8543 22.4589C96.2376 22.4589 95.7242 22.274 95.2997 21.9052ZM97.6073 21.1314C97.7891 20.9299 97.88 20.6727 97.88 20.3576C97.88 20.0425 97.7891 19.7853 97.6073 19.5839C97.4255 19.3824 97.1745 19.2822 96.8543 19.2822C96.5341 19.2822 96.2851 19.3824 96.1054 19.5839C95.9257 19.7853 95.8368 20.0425 95.8368 20.3576C95.8368 20.6727 95.9267 20.9299 96.1054 21.1314C96.2841 21.3328 96.5341 21.433 96.8543 21.433C97.1745 21.433 97.4245 21.3328 97.6073 21.1314Z" fill="black"/>
<path d="M99.5759 20.4155C99.5759 20.0519 99.641 19.7265 99.7701 19.4393C99.8992 19.1521 100.072 18.9248 100.287 18.7564C100.501 18.588 100.739 18.461 100.998 18.3763C101.258 18.2905 101.53 18.2482 101.817 18.2482C102.275 18.2482 102.683 18.3442 103.041 18.5374V19.5467C102.733 19.3484 102.379 19.2492 101.983 19.2492C101.636 19.2492 101.343 19.3401 101.106 19.5219C100.868 19.7038 100.75 19.9827 100.75 20.3577C100.75 20.7327 100.869 20.9899 101.106 21.1811C101.342 21.3711 101.629 21.4662 101.966 21.4662C102.391 21.4662 102.763 21.3701 103.083 21.1769V22.1945C102.67 22.3712 102.222 22.459 101.743 22.459C101.147 22.459 100.638 22.2844 100.213 21.9342C99.7887 21.584 99.5759 21.0777 99.5759 20.4166V20.4155Z" fill="black"/>
<path d="M105.928 22.3434H104.786V19.3413H103.521V18.3733H107.193V19.3413H105.928V22.3434Z" fill="black"/>
<path d="M108.815 22.3434H107.814V18.3733H108.964V20.6068L110.733 18.3733H111.726V22.3434H110.584V20.1099L108.814 22.3434H108.815Z" fill="black"/>
</svg>
