<svg width="27" height="38" viewBox="0 0 27 38" fill="none" xmlns="http://www.w3.org/2000/svg">
<path fill-rule="evenodd" clip-rule="evenodd" d="M16.1095 1.26965C16.5924 1.51262 16.9864 1.90171 17.2354 2.38156C17.446 2.78781 17.6185 3.55285 17.6185 4.08194C17.6185 4.69794 17.3732 5.28858 16.9369 5.72341L16.6786 5.98086C16.1285 6.52902 15.3837 6.83682 14.6071 6.83682H14.4847C13.7825 6.83682 13.1048 6.57882 12.5803 6.11185L12.5595 6.09327C12.0485 5.63811 11.7214 5.01186 11.64 4.33239L11.5993 3.99245C11.5436 3.52743 11.6328 3.05657 11.8547 2.64413C12.3073 1.80291 13.3345 1.07556 14.3119 0.903681C14.8272 0.813134 15.3579 0.891291 15.8252 1.12653L16.1095 1.26965ZM14.6143 9.47096C14.9261 9.59618 15.3724 9.97106 15.6062 10.3038C15.8829 10.6973 16.0313 11.1667 16.0313 11.6477V16.5716C16.0313 19.1097 16.9789 21.5565 18.6885 23.4325L19.9606 24.8286C20.8758 25.8329 21.5945 27.0001 22.0794 28.2694L23.0531 30.8183C25.1399 36.2808 25.1862 36.7843 23.6726 37.5644L23.5036 37.6515C23.1232 37.8475 22.6845 37.8984 22.2693 37.7946C21.239 37.537 20.9216 36.99 19.3146 32.7061L18.5486 30.6636C18.0509 29.3366 17.2985 28.1198 16.3336 27.0817L14.6714 25.2935C12.9533 23.4452 11.4257 21.613 11.2765 21.222C11.0972 20.752 11.0054 20.2532 11.0054 19.7501V17.6283C11.0054 16.0429 10.9324 14.7456 10.8432 14.7456C10.7541 14.7456 8.92911 15.7539 6.78806 16.9864C4.64673 18.2188 2.6591 19.2272 2.37077 19.2272C2.0827 19.2272 1.58619 18.9852 1.26797 18.6897C0.901939 18.3499 0.688927 17.8683 0.688927 17.3689V17.277C0.688927 16.8383 0.881115 16.4217 1.2148 16.137C1.50393 15.8902 4.26767 14.2307 7.35652 12.4489L12.506 9.47829C12.8107 9.30255 13.1583 9.2152 13.5099 9.22606C13.8053 9.23528 14.3024 9.34548 14.6143 9.47096ZM18.6252 13.2424C19.3713 14.0008 20.3034 14.5501 21.3284 14.8354L22.3733 15.1262C23.8083 15.5256 25.2301 16.0252 25.5328 16.2366C25.8775 16.4772 26.082 16.8716 26.0801 17.292L26.0793 17.4627C26.0745 18.4566 25.8922 18.7767 25.0915 19.1969C24.7091 19.3976 24.2652 19.4476 23.8477 19.337L21.3125 18.6651C19.5614 18.2012 17.9494 17.691 17.7309 17.5318C17.4821 17.3505 17.3388 17.0581 17.3479 16.7504L17.4381 13.708C17.4562 13.0978 18.1971 12.8072 18.6252 13.2424ZM13.6378 25.9384C14.0064 26.3527 14.1557 26.9176 14.04 27.4599C13.9387 27.9342 12.6041 30.3606 11.0741 32.8519L8.6947 36.726C8.43307 37.152 8.04322 37.4842 7.5811 37.6749L7.51747 37.7011C7.10172 37.8728 6.63622 37.8796 6.21562 37.7202C5.3173 37.3799 4.83322 36.7345 4.83322 35.8769C4.83322 35.4054 4.96406 34.943 5.21117 34.5414L8.94691 28.4695C9.52231 27.5344 9.95264 26.5174 10.2232 25.4533L10.3507 24.9521C10.5786 24.0555 11.7162 23.7783 12.3311 24.4695L13.6378 25.9384Z" fill="white"/>
</svg>
