<svg width="19" height="21" viewBox="0 0 19 21" fill="none" xmlns="http://www.w3.org/2000/svg">
<path d="M17.217 19.1953C17.217 17.7997 17.217 17.102 17.0448 16.5342C16.657 15.2558 15.6566 14.2553 14.3782 13.8675C13.8104 13.6953 13.1126 13.6953 11.717 13.6953H6.71705C5.32148 13.6953 4.6237 13.6953 4.0559 13.8675C2.7775 14.2553 1.77708 15.2558 1.38928 16.5342C1.21704 17.102 1.21704 17.7997 1.21704 19.1953M13.717 5.69531C13.717 8.18059 11.7023 10.1953 9.21704 10.1953C6.73176 10.1953 4.71704 8.18059 4.71704 5.69531C4.71704 3.21003 6.73176 1.19531 9.21704 1.19531C11.7023 1.19531 13.717 3.21003 13.717 5.69531Z" stroke="black" stroke-width="2" stroke-linecap="round" stroke-linejoin="round"/>
</svg>
