<svg width="42" height="40" viewBox="0 0 42 40" fill="none" xmlns="http://www.w3.org/2000/svg">
<path d="M19.3785 1.45325C19.894 0.408809 21.3833 0.408812 21.8988 1.45326L27.1115 12.0155C27.3162 12.4302 27.7119 12.7177 28.1696 12.7842L39.8257 14.4779C40.9783 14.6454 41.4385 16.0619 40.6045 16.8748L32.1701 25.0964C31.8389 25.4192 31.6878 25.8843 31.7659 26.3402L33.757 37.9492C33.9539 39.0971 32.749 39.9726 31.7181 39.4306L21.2926 33.9496C20.8832 33.7343 20.3941 33.7343 19.9847 33.9496L9.55921 39.4306C8.52828 39.9726 7.32337 39.0971 7.52026 37.9492L9.51136 26.3402C9.58955 25.8843 9.43841 25.4192 9.10721 25.0964L0.672791 16.8748C-0.161248 16.0619 0.298987 14.6454 1.4516 14.4779L13.1077 12.7842C13.5654 12.7177 13.9611 12.4302 14.1658 12.0155L19.3785 1.45325Z" fill="#D9D9D9"/>
</svg>
