<svg width="139" height="133" viewBox="0 0 139 133" fill="none" xmlns="http://www.w3.org/2000/svg">
<path d="M65.2161 2.95588C66.9685 -0.594839 72.0317 -0.594828 73.7841 2.95589L91.5055 38.8634C92.2013 40.2734 93.5465 41.2507 95.1025 41.4768L134.729 47.2348C138.647 47.8042 140.212 52.6196 137.376 55.3835L108.703 83.3336C107.577 84.4311 107.063 86.0124 107.329 87.5621L114.098 127.028C114.767 130.931 110.671 133.907 107.166 132.064L71.7231 113.431C70.3314 112.699 68.6687 112.699 67.277 113.431L31.8342 132.064C28.3294 133.907 24.2332 130.931 24.9025 127.028L31.6715 87.5621C31.9373 86.0124 31.4235 84.4311 30.2976 83.3336L1.62369 55.3835C-1.21173 52.6196 0.352901 47.8042 4.27135 47.2348L43.8976 41.4768C45.4537 41.2507 46.7988 40.2734 47.4947 38.8634L65.2161 2.95588Z" fill="#0E6131"/>
</svg>
