<svg width="281" height="246" viewBox="0 0 281 246" fill="none" xmlns="http://www.w3.org/2000/svg">
<rect x="3.77881" y="3.8125" width="271.442" height="12.666" rx="2" fill="#434449" stroke="#0E6131" stroke-width="4"/>
<g filter="url(#filter0_d_6_3141)">
<path d="M270.809 5.81055H10.1479V229.975H15.2818C16.1993 229.975 16.943 231.057 16.943 232.393L16.943 232.395H22.0099V232.393C22.0099 231.057 22.7536 229.975 23.671 229.975H31.6483C32.5657 229.975 33.3094 231.057 33.3094 232.393V232.395H38.3763V232.393C38.3763 231.057 39.12 229.975 40.0375 229.975H48.0147C48.9322 229.975 49.6759 231.057 49.6759 232.393V232.395H54.7428V232.393C54.7428 231.057 55.4865 229.975 56.4039 229.975H64.3812C65.2986 229.975 66.0423 231.057 66.0423 232.393V232.395H71.1092V232.393C71.1092 231.057 71.8529 229.975 72.7704 229.975H80.7476C81.665 229.975 82.4088 231.057 82.4088 232.393V232.395H87.4756V232.393C87.4756 231.057 88.2194 229.975 89.1368 229.975H97.114C98.0315 229.975 98.7752 231.057 98.7752 232.393V232.395H103.842V232.393C103.842 231.057 104.586 229.975 105.503 229.975H113.48C114.398 229.975 115.142 231.057 115.142 232.393V232.395H120.209V232.393C120.209 231.057 120.952 229.975 121.87 229.975H129.847C130.764 229.975 131.508 231.057 131.508 232.393V232.395H136.575V232.393C136.575 231.057 137.319 229.975 138.236 229.975H146.213C147.131 229.975 147.875 231.057 147.875 232.393V232.395H152.941V232.393C152.941 231.057 153.685 229.975 154.603 229.975H162.58C163.497 229.975 164.241 231.057 164.241 232.393V232.395H169.308V232.393C169.308 231.057 170.052 229.975 170.969 229.975H178.946C179.864 229.975 180.607 231.057 180.607 232.393V232.395H184.162V232.393C184.162 231.057 184.906 229.975 185.824 229.975H193.801C194.718 229.975 195.462 231.057 195.462 232.393V232.395H200.529V232.393C200.529 231.057 201.273 229.975 202.19 229.975H210.167C211.085 229.975 211.828 231.057 211.828 232.393V232.395H216.895V232.393C216.895 231.057 217.639 229.975 218.556 229.975H226.534C227.451 229.975 228.195 231.057 228.195 232.393V232.395H233.262V232.393C233.262 231.057 234.005 229.975 234.923 229.975H242.9C243.818 229.975 244.561 231.057 244.561 232.393V232.395H249.628V232.393C249.628 231.057 250.372 229.975 251.289 229.975H259.267C260.184 229.975 260.928 231.057 260.928 232.393V232.395H265.995V232.393C265.995 231.057 266.738 229.975 267.656 229.975H270.809V5.81055Z" fill="white"/>
<path d="M270.809 5.81055H10.1479V229.975H15.2818C16.1993 229.975 16.943 231.057 16.943 232.393L16.943 232.395H22.0099V232.393C22.0099 231.057 22.7536 229.975 23.671 229.975H31.6483C32.5657 229.975 33.3094 231.057 33.3094 232.393V232.395H38.3763V232.393C38.3763 231.057 39.12 229.975 40.0375 229.975H48.0147C48.9322 229.975 49.6759 231.057 49.6759 232.393V232.395H54.7428V232.393C54.7428 231.057 55.4865 229.975 56.4039 229.975H64.3812C65.2986 229.975 66.0423 231.057 66.0423 232.393V232.395H71.1092V232.393C71.1092 231.057 71.8529 229.975 72.7704 229.975H80.7476C81.665 229.975 82.4088 231.057 82.4088 232.393V232.395H87.4756V232.393C87.4756 231.057 88.2194 229.975 89.1368 229.975H97.114C98.0315 229.975 98.7752 231.057 98.7752 232.393V232.395H103.842V232.393C103.842 231.057 104.586 229.975 105.503 229.975H113.48C114.398 229.975 115.142 231.057 115.142 232.393V232.395H120.209V232.393C120.209 231.057 120.952 229.975 121.87 229.975H129.847C130.764 229.975 131.508 231.057 131.508 232.393V232.395H136.575V232.393C136.575 231.057 137.319 229.975 138.236 229.975H146.213C147.131 229.975 147.875 231.057 147.875 232.393V232.395H152.941V232.393C152.941 231.057 153.685 229.975 154.603 229.975H162.58C163.497 229.975 164.241 231.057 164.241 232.393V232.395H169.308V232.393C169.308 231.057 170.052 229.975 170.969 229.975H178.946C179.864 229.975 180.607 231.057 180.607 232.393V232.395H184.162V232.393C184.162 231.057 184.906 229.975 185.824 229.975H193.801C194.718 229.975 195.462 231.057 195.462 232.393V232.395H200.529V232.393C200.529 231.057 201.273 229.975 202.19 229.975H210.167C211.085 229.975 211.828 231.057 211.828 232.393V232.395H216.895V232.393C216.895 231.057 217.639 229.975 218.556 229.975H226.534C227.451 229.975 228.195 231.057 228.195 232.393V232.395H233.262V232.393C233.262 231.057 234.005 229.975 234.923 229.975H242.9C243.818 229.975 244.561 231.057 244.561 232.393V232.395H249.628V232.393C249.628 231.057 250.372 229.975 251.289 229.975H259.267C260.184 229.975 260.928 231.057 260.928 232.393V232.395H265.995V232.393C265.995 231.057 266.738 229.975 267.656 229.975H270.809V5.81055Z" fill="url(#paint0_linear_6_3141)" fill-opacity="0.19"/>
</g>
<defs>
<filter id="filter0_d_6_3141" x="0.647888" y="0.310547" width="279.661" height="245.584" filterUnits="userSpaceOnUse" color-interpolation-filters="sRGB">
<feFlood flood-opacity="0" result="BackgroundImageFix"/>
<feColorMatrix in="SourceAlpha" type="matrix" values="0 0 0 0 0 0 0 0 0 0 0 0 0 0 0 0 0 0 127 0" result="hardAlpha"/>
<feOffset dy="4"/>
<feGaussianBlur stdDeviation="4.75"/>
<feComposite in2="hardAlpha" operator="out"/>
<feColorMatrix type="matrix" values="0 0 0 0 0 0 0 0 0 0 0 0 0 0 0 0 0 0 0.1 0"/>
<feBlend mode="normal" in2="BackgroundImageFix" result="effect1_dropShadow_6_3141"/>
<feBlend mode="normal" in="SourceGraphic" in2="effect1_dropShadow_6_3141" result="shape"/>
</filter>
<linearGradient id="paint0_linear_6_3141" x1="140.479" y1="232.395" x2="140.479" y2="-11.7852" gradientUnits="userSpaceOnUse">
<stop offset="0.874177" stop-opacity="0"/>
<stop offset="0.929234"/>
<stop offset="0.944852" stop-opacity="0"/>
</linearGradient>
</defs>
</svg>
